<svg xmlns="http://www.w3.org/2000/svg" xml:space="preserve" viewBox="0 0.11699117931041947 68.06916315999999 67.95752333786064"><defs><clipPath id="a" clipPathUnits="userSpaceOnUse"><path d="M0 0h51.052v51.144H0Z"/></clipPath><clipPath id="b" clipPathUnits="userSpaceOnUse"><path d="M-1 52.144h53.052V-1H-1Z"/></clipPath></defs><g clip-path="url(#a)" transform="matrix(1.33333 0 0 -1.33333 0 68.192)"><g clip-path="url(#b)"><path d="M0 0a7.853 7.853 0 0 1-15.705 0v-9.005H0Z" transform="translate(33.379 43.292)" fill="#5c878e" fill-rule="nonzero"/><path d="M0 0a7.853 7.853 0 0 1 15.705.001v9.004H0Z" transform="translate(17.674 7.852)" fill="#404040" fill-rule="nonzero"/><path d="M17.674 17.744h15.705V33.4H17.674Z" fill="#ffffff" fill-rule="nonzero"/><path d="M0 0a7.828 7.828 0 0 1 0-15.656h8.959V0Zm-2.46-13.555a.747.747 0 1 0 .001 1.493.747.747 0 0 0-.001-1.493m0 4.981a.747.747 0 1 0 .001 1.493.747.747 0 0 0-.001-1.493m0 4.981a.747.747 0 1 0 .001 1.49.747.747 0 0 0-.001-1.49m3.982-9.962a.746.746 0 1 0 0 1.492.746.746 0 0 0 0-1.492m0 4.981a.746.746 0 1 0 0 1.492.746.746 0 0 0 0-1.492m0 4.981A.747.747 0 1 0 1.523-2.1a.747.747 0 0 0-.001-1.493m3.981-9.962a.746.746 0 1 0 0 1.492.746.746 0 0 0 0-1.492m0 4.981a.746.746 0 1 0 0 1.492.746.746 0 0 0 0-1.492m0 4.981A.747.747 0 1 0 5.504-2.1a.747.747 0 0 0-.001-1.493" transform="translate(7.828 33.4)" fill="#dde2e3" fill-rule="nonzero"/><path d="M0 0a.746.746 0 1 1 0-1.492A.746.746 0 0 1 0 0" transform="translate(5.368 21.337)" fill="#ffffff" fill-rule="nonzero"/><path d="M0 0a.746.746 0 1 1 0-1.492A.746.746 0 0 1 0 0" transform="translate(5.368 31.3)" fill="#ffffff" fill-rule="nonzero"/><path d="M0 0a.746.746 0 1 1 0-1.492A.746.746 0 0 1 0 0" transform="translate(5.368 26.318)" fill="#ffffff" fill-rule="nonzero"/><path d="M0 0a.746.746 0 1 1 0-1.492A.746.746 0 0 1 0 0" transform="translate(9.35 21.337)" fill="#ffffff" fill-rule="nonzero"/><path d="M0 0a.746.746 0 1 1 0-1.492A.746.746 0 0 1 0 0" transform="translate(9.35 31.3)" fill="#ffffff" fill-rule="nonzero"/><path d="M0 0a.746.746 0 1 1 0-1.492A.746.746 0 0 1 0 0" transform="translate(9.35 26.318)" fill="#ffffff" fill-rule="nonzero"/><path d="M0 0a.746.746 0 1 1 0-1.492A.746.746 0 0 1 0 0" transform="translate(13.33 21.337)" fill="#ffffff" fill-rule="nonzero"/><path d="M0 0a.746.746 0 1 1 0-1.492A.746.746 0 0 1 0 0" transform="translate(13.33 31.3)" fill="#ffffff" fill-rule="nonzero"/><path d="M0 0a.746.746 0 1 1 0-1.492A.746.746 0 0 1 0 0" transform="translate(13.33 26.318)" fill="#ffffff" fill-rule="nonzero"/><path d="M0 0h-8.959v-15.656H0A7.828 7.828 0 0 1 0 0m-6.39-13.555a.746.746 0 1 0 0 1.492.746.746 0 0 0 0-1.492m0 4.981a.746.746 0 1 0 0 1.492.746.746 0 0 0 0-1.492m0 4.981a.746.746 0 1 0 0 1.492.746.746 0 0 0 0-1.492m3.981-9.962a.746.746 0 1 0 0 1.492.746.746 0 0 0 0-1.492m0 4.981a.746.746 0 1 0 0 1.492.746.746 0 0 0 0-1.492m0 4.981a.746.746 0 1 0 0 1.492.746.746 0 0 0 0-1.492m3.981-9.962a.746.746 0 1 0 0 1.492.746.746 0 0 0 0-1.492m0 4.981a.746.746 0 1 0 0 1.492.746.746 0 0 0 0-1.492m0 4.981a.746.746 0 1 0 0 1.492.746.746 0 0 0 0-1.492" transform="translate(43.224 33.4)" fill="#dde2e3" fill-rule="nonzero"/><path d="M0 0a.746.746 0 1 1 0-1.492A.746.746 0 0 1 0 0" transform="translate(44.797 31.3)" fill="#ffffff" fill-rule="nonzero"/><path d="M0 0a.746.746 0 1 1 0-1.492A.746.746 0 0 1 0 0" transform="translate(44.797 21.337)" fill="#ffffff" fill-rule="nonzero"/><path d="M0 0a.746.746 0 1 1 0-1.492A.746.746 0 0 1 0 0" transform="translate(44.797 26.318)" fill="#ffffff" fill-rule="nonzero"/><path d="M0 0a.746.746 0 1 1 0-1.492A.746.746 0 0 1 0 0" transform="translate(40.816 31.3)" fill="#ffffff" fill-rule="nonzero"/><path d="M0 0a.746.746 0 1 1 0-1.492A.746.746 0 0 1 0 0" transform="translate(40.816 21.337)" fill="#ffffff" fill-rule="nonzero"/><path d="M0 0a.746.746 0 1 1 0-1.492A.746.746 0 0 1 0 0" transform="translate(40.816 26.318)" fill="#ffffff" fill-rule="nonzero"/><path d="M0 0a.746.746 0 1 1 0-1.492A.746.746 0 0 1 0 0" transform="translate(36.834 31.3)" fill="#ffffff" fill-rule="nonzero"/><path d="M0 0a.746.746 0 1 1 0-1.492A.746.746 0 0 1 0 0" transform="translate(36.834 21.337)" fill="#ffffff" fill-rule="nonzero"/><path d="M0 0a.746.746 0 1 1 0-1.492A.746.746 0 0 1 0 0" transform="translate(36.834 26.318)" fill="#ffffff" fill-rule="nonzero"/></g></g></svg>