<svg xmlns="http://www.w3.org/2000/svg" xml:space="preserve" viewBox="0.0010070571277364724 0.0015823307174849255 1093.1829266428722 675.1744176692824"><defs><clipPath id="a" clipPathUnits="userSpaceOnUse"><path d="M0 0h819.891v506.382H0Z"/></clipPath><clipPath id="b" clipPathUnits="userSpaceOnUse"><path d="M0 0h819.891v506.382H0Z"/></clipPath></defs><g clip-path="url(#a)" transform="matrix(1.33333 0 0 -1.33333 0 675.176)"><path d="M0 0c-14.421 8.951-31.22 9.885-38.225 9.839v1.378h-16.802s-8.942 8.917-8.295-8.077c0 0 1.188-15.252 12.532-3.608l12.565 1.743v1.083c50.4 1.202 48.797-49.111 48.797-49.111l-.146-141.274h12.378v133.021C22.804-36.246 18.761-11.644 0 0" transform="translate(187.387 492.827)" fill="#99ddd8" fill-rule="nonzero"/><path d="M0 0h-16.155v-1.385c-6.508.102-23.69-.609-38.549-9.832-18.76-11.645-22.481-36.246-22.481-55.007v-133.02h11.732l-.146 141.273S-67.202-7.25-16.155-8.89v-1.052l12.242-1.743C7.43-23.329 8.295-8.078 8.295-8.078 8.942 8.917 0 0 0 0" transform="translate(77.362 504.044)" fill="#99ddd8" fill-rule="nonzero"/></g><path d="m0 0-42.543 112.8-31.327-82.785-16.691 18.217-11.664-12.73H-220.03v12.565h112.276l17.193 18.763 12.165-13.277 35.87 94.804L.221 35.023l22.12 56.494 15.54-43.45H215.27V35.502H29.028l-7.22 20.192z" transform="matrix(1.33333 0 0 -1.33333 661.833 593.657)" fill="#2d393a" fill-rule="nonzero"/><g clip-path="url(#b)" transform="matrix(1.33333 0 0 -1.33333 0 675.176)"><path d="M0 0c0-30.401-24.645-55.046-55.047-55.046-30.401 0-55.046 24.645-55.046 55.046s24.645 55.047 55.046 55.047C-24.645 55.047 0 30.401 0 0" transform="translate(819.89 105.578)" fill="#2d393a" fill-rule="nonzero"/><path d="M0 0c0-20.276-16.437-36.713-36.713-36.713S-73.426-20.276-73.426 0s16.437 36.713 36.713 36.713S0 20.276 0 0" transform="translate(801.557 105.578)" fill="#99ddd8" fill-rule="nonzero"/><path d="M0 0c-25.36-.091-27.542-26.562-29.467-49.918-2.443-29.67-5.548-47.59-27.634-46.498-9.727.489-17.4 4.049-23.455 10.884-10.445 11.793-13.793 30.568-14.818 43.357-.025 1.377-2.743 83.804 1.121 92.82 3.882 9.056 25.399 8.097 61.643 38.815C.023 117.117-2.071 150.623.04 187.144c.893 15.462.121 21.029-5.024 21.035-8.126.009-7.169-5.098-7.371-19.29-.277-19.455-.785-50.831-14.248-73.268-12.674-21.123-77.855-53.332-77.855-53.332s-40.109 20.7-64.045 36.873-27.819 55.634-28.466 87.979c-.375 18.779-.814 21.221-7.295 21.038-4.984-.141-5.727-4.451-5.82-9.006-.925-36.963 5.983-64.448 5.983-64.448 1.94-10.223 9.038-23.955 9.038-23.955 14.879-32.345 70.642-48.093 81.765-59.553 8.812-9.078 2.159-29.716 4.966-86.834.07-2.193.655-4.732.655-7.537v.213h-.213c1.247-14.36 5.24-36.336 18.009-50.777 8.296-9.381 19.095-14.53 32.202-15.189.903-.044 1.754-.096 2.615-.096 33.358.002 36.106 33.46 38.134 58.067 2.147 26.059 4.517 38.335 16.982 38.378 44.34.158 131.31-.163 132.183-.165l.044 12.563C131.404-.156 44.384.158 0 0" transform="translate(210.17 109.003)" fill="#2d393a" fill-rule="nonzero"/></g></svg>